<svg id="SvgjsSvg1001" width="288" height="288" xmlns="http://www.w3.org/2000/svg" version="1.1" xmlns:xlink="http://www.w3.org/1999/xlink" xmlns:svgjs="http://svgjs.com/svgjs"><defs id="SvgjsDefs1002"></defs><g id="SvgjsG1008" transform="matrix(0.9167,0,0,0.9167,12.016463514709471,12.007042618012434)"><svg xmlns="http://www.w3.org/2000/svg" viewBox="0 0 512 512" width="288" height="288"><path fill="#ffffff" d="M242.36,96.64l-7.41,13a95.68,95.68,0,0,0-130.47,35.93l-13-7.4A110.69,110.69,0,0,1,242.36,96.64Z" class="color231f20 svgShape"></path><path fill="#ffffff" d="M322.36,58.4c-68.1-73-182.91-77-255.92-8.91A181.08,181.08,0,0,0,307.87,319.32q2.84-2.43,5.59-5c1.84-1.71,3.63-3.46,5.38-5.23A181.08,181.08,0,0,0,322.36,58.4Zm14.73,128.7a147.21,147.21,0,0,1-147,142.1q-2.61,0-5.25-.09A146.27,146.27,0,0,1,82.31,282.4C26.94,223,30.19,129.7,89.55,74.33A147.21,147.21,0,0,1,337.09,187.1Z" class="color231f20 svgShape"></path><path fill="#ffffff" d="M242.36,96.64l-7.41,13a95.68,95.68,0,0,0-130.47,35.93l-13-7.4A110.69,110.69,0,0,1,242.36,96.64Z" class="colorfff svgShape"></path><path fill="#ffffff" d="M494.87,455.2,371.74,327.92l-49,45.73L445.89,501a33.3,33.3,0,0,0,23.3,10.58l1.19,0a33.53,33.53,0,0,0,24.49-56.39Z" class="color231f20 svgShape"></path><line x1="352.47" x2="308.34" y1="356.15" y2="308.84" fill="none"></line><rect width="15" height="64.69" x="322.9" y="300.15" fill="#ffffff" transform="rotate(-43.01 330.367 332.477)" class="color231f20 svgShape"></rect><path fill="#ffffff" d="M242.36,96.64l-7.41,13a95.68,95.68,0,0,0-130.47,35.93l-13-7.4A110.69,110.69,0,0,1,242.36,96.64Z" class="color231f20 svgShape"></path></svg></g></svg>