<svg id="SvgjsSvg1001" width="288" height="288" xmlns="http://www.w3.org/2000/svg" version="1.1" xmlns:xlink="http://www.w3.org/1999/xlink" xmlns:svgjs="http://svgjs.com/svgjs"><defs id="SvgjsDefs1002"></defs><g id="SvgjsG1008" transform="matrix(0.9167,0,0,0.9167,11.9952003177643,11.994699839019773)"><svg xmlns="http://www.w3.org/2000/svg" width="288" height="288" enable-background="new 0 0 24 24" version="1.0" viewBox="0 0 24 24"><path fill="#ffffff" d="M16.956 14.415H7.157c-.053 0-.105-.014-.154-.039-1.674-.174-2.971-1.584-2.971-3.252 0-1.815 1.491-3.292 3.323-3.292.075 0 .146 0 .217.002.05-2.474 2.081-4.47 4.569-4.47 2.504 0 4.542 2.047 4.542 4.564 0 .046-.002.091-.006.134.044-.002.09-.004.138-.004 1.738 0 3.153 1.425 3.153 3.177 0 1.715-1.286 3.081-2.991 3.178C16.969 14.414 16.963 14.415 16.956 14.415zM7.268 13.714h9.678c1.324-.08 2.321-1.144 2.321-2.478 0-1.366-1.1-2.477-2.453-2.477-.177 0-.329.026-.48.052-.1.019-.205-.012-.284-.078-.079-.066-.124-.164-.124-.267 0-.1.015-.2.031-.304.012-.074.025-.151.025-.233 0-2.13-1.723-3.864-3.841-3.864-2.134 0-3.87 1.733-3.87 3.864 0 .038.006.071.01.105C8.292 8.099 8.3 8.165 8.3 8.239c0 .11-.052.213-.139.279C8.073 8.585 7.96 8.608 7.854 8.576 7.703 8.533 7.565 8.533 7.355 8.533c-1.446 0-2.623 1.163-2.623 2.591 0 1.359 1.042 2.461 2.423 2.563C7.195 13.69 7.233 13.7 7.268 13.714zM7.837 17.383c-.193 0-.35-.157-.35-.35v-1.386c0-.193.157-.35.35-.35s.35.157.35.35v1.386C8.187 17.227 8.03 17.383 7.837 17.383z" class="color010101 svgShape"></path><path fill="#ffffff" d="M8.545 16.705H7.157c-.193 0-.35-.157-.35-.35s.157-.35.35-.35h1.388c.193 0 .35.157.35.35S8.738 16.705 8.545 16.705zM11.943 17.383c-.193 0-.35-.157-.35-.35v-1.386c0-.193.157-.35.35-.35s.35.157.35.35v1.386C12.293 17.227 12.137 17.383 11.943 17.383z" class="color010101 svgShape"></path><path fill="#ffffff" d="M12.651 16.705h-1.416c-.193 0-.35-.157-.35-.35s.157-.35.35-.35h1.416c.193 0 .35.157.35.35S12.845 16.705 12.651 16.705zM16.248 17.667c-.193 0-.35-.157-.35-.35v-1.386c0-.193.157-.35.35-.35s.35.157.35.35v1.386C16.598 17.51 16.441 17.667 16.248 17.667z" class="color010101 svgShape"></path><path fill="#ffffff" d="M16.956 16.988h-1.388c-.193 0-.35-.157-.35-.35s.157-.35.35-.35h1.388c.193 0 .35.157.35.35S17.149 16.988 16.956 16.988zM9.819 20.38c-.193 0-.35-.157-.35-.35v-1.386c0-.193.157-.35.35-.35s.35.157.35.35v1.386C10.169 20.224 10.013 20.38 9.819 20.38z" class="color010101 svgShape"></path><path fill="#ffffff" d="M10.527 19.702H9.14c-.193 0-.35-.157-.35-.35s.157-.35.35-.35h1.388c.193 0 .35.157.35.35S10.721 19.702 10.527 19.702zM14.152 20.635c-.193 0-.35-.157-.35-.35v-1.414c0-.193.157-.35.35-.35s.35.157.35.35v1.414C14.502 20.479 14.346 20.635 14.152 20.635z" class="color010101 svgShape"></path><path fill="#ffffff" d="M14.832,19.928h-1.388c-0.193,0-0.35-0.157-0.35-0.35s0.157-0.35,0.35-0.35h1.388    c0.193,0,0.35,0.157,0.35,0.35S15.025,19.928,14.832,19.928z" class="color010101 svgShape"></path></svg></g></svg>